<svg width="304" height="304" viewBox="0 0 304 304" fill="none" xmlns="http://www.w3.org/2000/svg">
<rect width="304" height="304" rx="2" fill="#1C1B20" fill-opacity="0.05"/>
<path d="M112.188 93.375H149.168C151.318 93.375 153.36 94.2373 154.865 95.7423L208.938 149.812" stroke="#1C1B20" stroke-opacity="0.05" stroke-width="6" stroke-linecap="round" stroke-linejoin="round"/>
<path d="M137.074 109.5H104.125C99.6638 109.5 96.0625 113.101 96.0625 117.562V150.516C96.0625 152.666 96.9225 154.706 98.4275 156.211L150.834 208.617C152.339 210.122 154.381 210.985 156.531 210.985C158.681 210.985 160.724 210.122 162.229 208.617L195.178 175.669C198.349 172.552 198.349 167.391 195.178 164.274L142.771 111.867C141.266 110.309 139.224 109.5 137.074 109.5Z" stroke="#1C1B20" stroke-opacity="0.05" stroke-width="6" stroke-linecap="round" stroke-linejoin="round"/>
<path d="M120.25 131.646C119.121 131.646 118.208 132.56 118.208 133.688C118.208 134.817 119.121 135.735 120.25 135.735C121.379 135.735 122.292 134.817 122.292 133.688C122.292 133.151 122.077 132.616 121.701 132.24C121.271 131.863 120.787 131.646 120.25 131.646Z" stroke="#1C1B20" stroke-opacity="0.05" stroke-width="6" stroke-linecap="round" stroke-linejoin="round"/>
</svg>