    <svg width="18" height="18" viewBox="0 0 18 18" fill="none" xmlns="http://www.w3.org/2000/svg">
<path fill-rule="evenodd" clip-rule="evenodd" d="M9.74862 1.05567C10.5626 0.583007 11.562 0.583007 12.376 1.05567C13.1882 1.52728 13.6873 2.39291 13.6873 3.32959V4.31329H14.2798C15.0787 4.31329 15.7559 4.90834 15.8618 5.70208L15.862 5.70361L17.1404 15.4984C17.2045 15.9637 17.0521 16.4197 16.7588 16.7549L16.7523 16.7623L16.7523 16.7623C16.4515 17.0942 16.0206 17.2977 15.5586 17.2977H6.93781H6.93732H2.44156C1.97955 17.2977 1.54867 17.0942 1.24788 16.7623L1.2413 16.755C0.947662 16.4194 0.795478 15.9562 0.859805 15.4975L2.13837 5.70208C2.24389 4.91066 2.91221 4.31329 3.72031 4.31329H4.48279H4.49031H5.85919V3.32892C5.85919 2.45354 6.29678 1.63157 7.03093 1.14214C7.28942 0.969816 7.63865 1.03966 7.81098 1.29815C7.9833 1.55663 7.91345 1.90587 7.65497 2.0782C7.23412 2.35876 6.98419 2.8293 6.98419 3.32892V4.31329H8.43732V3.32959C8.43732 2.39291 8.93639 1.52728 9.74862 1.05567ZM12.5623 7.97022V5.43829H10.5467C10.236 5.43829 9.98419 5.18645 9.98419 4.87579C9.98419 4.56513 10.236 4.31329 10.5467 4.31329H12.5623V3.32959C12.5623 2.79502 12.2776 2.29944 11.8111 2.02855C11.3464 1.75871 10.7782 1.75871 10.3135 2.02855C9.847 2.29944 9.56232 2.79502 9.56232 3.32959V7.97022C9.56232 8.28088 9.31048 8.53272 8.99982 8.53272C8.68916 8.53272 8.43732 8.28088 8.43732 7.97022V5.43829H6.01425C6.0406 5.52323 6.06016 5.61135 6.07225 5.70208L6.07251 5.70398L7.43198 16.1727H15.5586C15.6863 16.1727 15.8177 16.1162 15.9153 16.0104C16.0041 15.9069 16.0431 15.7746 16.0258 15.6511L16.0251 15.6461L16.0252 15.6461L14.7466 5.85076L14.7465 5.85013C14.7146 5.61294 14.512 5.43829 14.2798 5.43829H13.6873V7.97022C13.6873 8.28088 13.4355 8.53272 13.1248 8.53272C12.8142 8.53272 12.5623 8.28088 12.5623 7.97022ZM3.2535 5.85076L1.97407 15.6529C1.95746 15.7692 1.99652 15.9074 2.08486 16.0105C2.18249 16.1162 2.3138 16.1727 2.44156 16.1727H6.29754L4.95712 5.85076L4.95702 5.85001C4.92503 5.61287 4.72241 5.43829 4.49031 5.43829H4.48279H3.72031C3.48362 5.43829 3.28573 5.61124 3.2535 5.85076Z" fill="#491D8B"/>
</svg>
