<svg width="167" height="196" viewBox="0 0 167 196" fill="none" xmlns="http://www.w3.org/2000/svg">
<path d="M14.0053 33.9776C12.6108 35.0677 12.6842 36.9935 14.2255 38.556L15.3999 39.7551L14.2255 40.9542C12.6842 42.5167 12.6108 44.4425 14.0053 45.5326C15.3999 46.6227 16.8311 46.5137 18.3724 45.1692L19.6569 44.0428L20.9413 45.1692C24.501 48.2578 27.9874 44.0428 24.7212 40.5908L23.9506 39.7914L24.9414 38.665C26.3359 36.9935 26.3359 35.2857 24.9414 34.0139C23.6937 32.9239 22.4826 32.9965 20.9413 34.341L19.6202 35.5037L18.8128 34.777C16.9045 33.0692 15.51 32.8148 14.0053 33.9776Z" fill="#1C1B20" fill-opacity="0.4"/>
<path d="M77.729 0.799262C76.1795 2.01048 76.2611 4.15029 77.9737 5.88636L79.2785 7.2187L77.9737 8.55103C76.2611 10.2871 76.1795 12.4269 77.729 13.6381C79.2785 14.8493 80.8687 14.7282 82.5813 13.2344L84.0085 11.9828L85.4356 13.2344C89.3909 16.6662 93.2646 11.9828 89.6356 8.14729L88.7793 7.25907L89.8802 6.00748C91.4297 4.15029 91.4297 2.25272 89.8802 0.839636C88.4938 -0.371578 87.1482 -0.290831 85.4356 1.203L83.9677 2.49496L83.0706 1.68749C80.9503 -0.210083 79.4008 -0.4927 77.729 0.799262Z" fill="#1C1B20" fill-opacity="0.4"/>
<path d="M142.585 33.9146C141.214 34.9899 141.41 36.6191 143.107 38.3461L144.477 39.7472L143.107 41.1484C141.443 42.8102 141.247 44.3742 142.487 45.5473C143.727 46.6877 145.097 46.4922 146.826 44.8956L148.295 43.5596L149.665 44.8956C150.677 45.8731 151.329 46.2641 152.047 46.2641C153.352 46.2641 154.364 45.4821 154.625 44.3417C154.853 43.2012 154.461 42.2888 153.058 40.79L152.047 39.7472L153.222 38.509C153.874 37.8573 154.494 36.9776 154.625 36.554C154.918 35.5113 154.2 33.882 153.254 33.5236C151.851 33.0023 151.231 33.1978 149.698 34.5989L148.229 35.9349L147.185 34.9573C145.195 33.0674 143.988 32.8068 142.585 33.9146Z" fill="#1C1B20" fill-opacity="0.4"/>
<path d="M82.3906 56.9139C82.0318 57.0118 63.9946 62.7862 42.3043 69.7676C0 83.339 1.533 82.7844 0.456638 85.2964C0.0652341 86.1773 0 92.8325 0 124.608C0 149.956 0.130468 163.299 0.32617 164.082C0.815426 165.779 2.54413 167.965 4.07713 168.813C4.7947 169.204 22.4731 175.435 43.3807 182.678C78.183 194.683 81.5426 195.792 83.4996 195.792C85.4566 195.825 88.6857 194.748 123.521 182.71C144.363 175.501 161.976 169.302 162.694 168.943C163.411 168.584 164.455 167.736 165.01 167.051C167.097 164.506 166.999 166.757 166.999 124.64C166.999 82.8823 167.097 85.1986 165.107 83.339C164.096 82.3603 165.401 82.817 116.443 67.0925C109.724 64.9393 99.9712 61.7749 94.7525 60.1111C85.1957 57.0444 83.5322 56.6203 82.3906 56.9139ZM83.1734 66.0485C83.9329 66.0485 82.6516 66.0485 83.4996 66.0485C84.3477 66.0485 82.7528 66.0485 83.1734 66.0485V65.1024V64.7762V62.0685L123.684 75.281C144.069 81.8383 160.835 87.2538 160.932 87.3517C161.193 87.6453 83.3039 112.602 82.9451 112.374C82.7494 112.243 74.6278 109.601 64.8753 106.469C14.906 90.3857 5.7406 87.3843 6.19724 87.2212C6.45817 87.1233 23.1907 81.7404 43.3807 75.2484C63.5706 68.7889 83.0104 62.0685 83.1734 62.0685C83.1734 62.0685 83.1734 62.2316 83.1734 64.8415V65.1677V66.0485ZM40.9344 104.642C58.3519 110.221 74.3668 115.375 76.5848 116.093L80.5641 117.431V153.447C80.5641 173.25 80.4988 189.463 80.4336 189.463C80.401 189.463 66.2452 184.603 49.056 178.698C31.8668 172.76 15.3626 167.084 12.3945 166.04C9.16539 164.931 6.71911 163.919 6.29509 163.462L5.5449 162.745V128.001V93.2566L7.43668 93.8764C8.44781 94.2353 23.5495 99.0636 40.9344 104.642ZM161.291 162.614C161.193 163.038 160.802 163.56 160.378 163.821C159.791 164.213 87.0875 189.463 86.5656 189.463C86.5004 189.463 86.4351 173.25 86.4351 153.447V117.398L89.9578 116.256C91.8822 115.636 105.418 111.297 120.031 106.6C134.643 101.902 149.908 97.0083 153.952 95.7033L161.291 93.3544L161.389 127.609C161.422 146.466 161.389 162.223 161.291 162.614Z" fill="#1C1B20" fill-opacity="0.4"/>
</svg>
