<svg width="8" height="8" viewBox="0 0 8 8" fill="none" xmlns="http://www.w3.org/2000/svg">
<path d="M4.23968 0.400004L5.35636 2.61001L7.50303 2.82332C7.60636 2.83332 7.69636 2.9 7.73303 3C7.76969 3.1 7.74303 3.20999 7.66969 3.28333L5.90301 5.03333L6.55635 7.41333C6.58302 7.51666 6.54968 7.62667 6.46634 7.69334C6.38301 7.76001 6.26967 7.77333 6.17301 7.72666L3.99635 6.65L1.82301 7.72666C1.72634 7.77333 1.61302 7.76334 1.52969 7.69334C1.44635 7.62667 1.40968 7.51666 1.43968 7.41333L2.09635 5.03333L0.329684 3.28333C0.256351 3.20999 0.229684 3.1 0.26635 3C0.303017 2.9 0.393018 2.83332 0.496351 2.82332L2.64302 2.61001L3.75635 0.400004C3.80302 0.310004 3.89635 0.25 3.99969 0.25C4.10302 0.25 4.19301 0.306671 4.23968 0.400004Z" fill="#1C1B20" fill-opacity="0.4"/>
</svg>
