<svg width="32" height="32" viewBox="0 0 32 32" fill="none" xmlns="http://www.w3.org/2000/svg">
<path d="M16 31C24.28 31 31 24.28 31 16C31 7.72 24.28 1 16 1C7.72 1 1 7.72 1 16C1 24.28 7.70667 31 16 31Z" stroke="#1C1B20" stroke-width="1.5" stroke-linecap="round" stroke-linejoin="round"/>
<path d="M11 21L21 11" stroke="#1C1B20" stroke-width="1.5" stroke-linecap="round" stroke-linejoin="round"/>
<path d="M12 14C13.1067 14 14 13.1067 14 12C14 10.8933 13.1067 10 12 10C10.8933 10 10 10.8933 10 12C10 13.1067 10.8933 14 12 14Z" stroke="#1C1B20" stroke-width="1.5" stroke-linecap="round" stroke-linejoin="round"/>
<path d="M20 22C21.1067 22 22 21.1067 22 20C22 18.8933 21.1067 18 20 18C18.8933 18 18 18.8933 18 20C18 21.1067 18.8933 22 20 22Z" stroke="#1C1B20" stroke-width="1.5" stroke-linecap="round" stroke-linejoin="round"/>
</svg>
