<svg width="72" height="65" viewBox="0 0 72 65" fill="none" xmlns="http://www.w3.org/2000/svg">
<path fill-rule="evenodd" clip-rule="evenodd" d="M2.74628 3.25656C1.79861 2.29608 1.75349 1.11224 2.6109 0.442143C3.536 -0.272629 4.39342 -0.116273 5.56672 0.933548L6.06311 1.38028L6.8754 0.665509C7.82307 -0.160946 8.56766 -0.205619 9.33482 0.464479C10.1922 1.24626 10.1922 2.29608 9.33482 3.32357L8.72561 4.016L9.19944 4.50741C11.2076 6.62939 9.06406 9.22043 6.8754 7.32182L6.08568 6.62939L5.29596 7.32182C4.34829 8.14828 3.46831 8.21529 2.6109 7.54519C1.75349 6.87509 1.79861 5.69125 2.74628 4.73077L3.46831 3.99367L2.74628 3.25656ZM0.46643 55.0353C-0.125862 54.435 -0.154066 53.6951 0.381817 53.2763C0.960006 52.8296 1.49589 52.9273 2.2292 53.5834L2.53945 53.8626L3.04713 53.4159C3.63942 52.8994 4.10479 52.8715 4.58427 53.2903C5.12015 53.7789 5.12015 54.435 4.58427 55.0772L4.20351 55.51L4.49966 55.8171C5.75475 57.1433 4.41504 58.7627 3.04713 57.5761L2.55355 57.1433L2.05998 57.5761C1.46769 58.0926 0.9177 58.1345 0.381817 57.7157C-0.154066 57.2969 -0.125862 56.557 0.46643 55.9567L0.9177 55.496L0.46643 55.0353ZM66.417 13.3026C65.7851 13.7983 65.8754 14.5494 66.6578 15.3456L67.2897 15.9916L66.6578 16.6376C65.8904 17.4038 65.8002 18.1248 66.3719 18.6657C66.9437 19.1914 67.5756 19.1013 68.373 18.3652L69.0501 17.7493L69.6821 18.3652C70.1485 18.8159 70.4494 18.9962 70.7804 18.9962C71.3823 18.9962 71.8487 18.6356 71.9691 18.1098C72.0744 17.584 71.8938 17.1634 71.2469 16.4723L70.7804 15.9916L71.3221 15.4208C71.623 15.1203 71.9089 14.7147 71.9691 14.5194C72.1045 14.0387 71.7735 13.2875 71.3371 13.1223C70.6901 12.8819 70.4043 12.9721 69.6971 13.618L69.02 14.234L68.5386 13.7833C67.6207 12.912 67.064 12.7918 66.417 13.3026ZM32.7431 7.13694C26.5506 7.98007 20.8404 10.7608 16.4125 15.1231C9.1436 22.2649 6.2622 32.7373 8.80342 42.7215C11.5143 53.3163 20.5083 61.6679 31.3117 63.6224C35.4669 64.3764 40.3419 64.1461 44.2272 63.0309L45.0905 62.7781L51.9235 64.1229C55.688 64.8743 58.2437 64.9585 58.4838 64.9509C59.0691 64.9322 59.9396 64.1784 59.9205 63.5781C59.9279 63.3375 59.7876 61.9947 58.5745 59.7499L56.5457 55.9536L57.7207 54.6393C59.3321 52.8754 60.8536 50.6487 61.9713 48.4799C64.4466 43.654 65.5223 37.806 64.9 32.4177C64.4428 28.4362 63.4909 25.432 61.5908 21.902C59.2747 17.5742 56.3182 14.3633 52.1121 11.5378C50.362 10.3617 46.6265 8.63282 44.5645 8.03748C40.7739 6.94134 36.5275 6.62586 32.7431 7.13694ZM38.1405 10.1048C49.8704 10.9632 59.288 19.4065 61.5371 31.0675C61.8414 32.6052 61.9723 36.7172 61.7664 38.2711C61.3589 41.5139 60.2804 44.9133 58.8328 47.5733C57.6681 49.6835 56.5589 51.176 54.6846 53.1736C54.6283 53.2332 54.5735 53.291 54.5202 53.3473C54.491 53.3781 54.4624 53.4083 54.4341 53.4381C53.5839 54.3346 53.1215 54.8221 53.0259 55.3733C52.9119 56.0303 53.3189 56.7776 54.2111 58.4159L54.2111 58.4159L54.2112 58.416L54.3244 58.624L54.4605 58.8743C55.2436 60.3517 55.8835 61.5781 55.8545 61.6091C55.825 61.6251 53.4526 61.1899 50.5951 60.6198C47.1481 59.9334 45.1702 59.6208 44.781 59.6632C44.4523 59.7188 43.3484 59.9642 42.3206 60.2373C40.6222 60.682 40.2029 60.7254 37.3815 60.8152C33.9753 60.9387 32.2569 60.753 29.4969 59.9395C27.5558 59.3704 24.0947 57.768 22.4517 56.6486C12.903 50.2225 8.84284 38.7693 12.2506 27.8445C15.6987 16.7683 26.6667 9.26832 38.1405 10.1048ZM26.4656 31.4688C25.4893 32.425 26.1464 34 27.5358 34C28.2681 34 29.0003 33.25 29.0003 32.5C29.0003 31.7313 28.2681 31 27.4983 31C27.1415 31 26.7472 31.1688 26.4656 31.4688ZM44.4456 34C43.0944 34 42.4767 32.1807 43.5384 31.3657C44.8124 30.3802 46.4339 31.5363 45.8934 33.0524C45.6617 33.7157 45.2178 34 44.4456 34ZM33.2694 37.2087C30.4044 38.0655 29.3025 39.3149 30.4445 40.4751C31.0055 41.082 32.1274 41.1534 32.7485 40.6536C33.3095 40.1895 34.5317 39.8504 35.6136 39.8326C36.3148 39.8326 36.8758 39.9932 37.8976 40.4751C39.3402 41.1534 39.8811 41.1712 40.5823 40.5465C41.5641 39.6719 40.7627 38.4225 38.7391 37.6014C37.2565 36.9945 34.6318 36.816 33.2694 37.2087Z" fill="#1C1B20" fill-opacity="0.4"/>
</svg>
