<svg width="20" height="20" viewBox="0 0 20 20" fill="none" xmlns="http://www.w3.org/2000/svg">
<path d="M10.5393 1.90001L13.0518 6.87251L17.8818 7.35248C18.1143 7.37498 18.3168 7.525 18.3993 7.75C18.4818 7.975 18.4218 8.22248 18.2568 8.38748L14.2818 12.325L15.7518 17.68C15.8118 17.9125 15.7368 18.16 15.5493 18.31C15.3618 18.46 15.1068 18.49 14.8893 18.385L9.99179 15.9625L5.10177 18.385C4.88427 18.49 4.62929 18.4675 4.44179 18.31C4.25429 18.16 4.17178 17.9125 4.23928 17.68L5.71678 12.325L1.74179 8.38748C1.57679 8.22248 1.51679 7.975 1.59929 7.75C1.68179 7.525 1.88429 7.37498 2.11679 7.35248L6.94679 6.87251L9.45179 1.90001C9.55679 1.69751 9.7668 1.5625 9.9993 1.5625C10.2318 1.5625 10.4343 1.69001 10.5393 1.90001Z" stroke="black" stroke-width="1.5" stroke-linecap="round" stroke-linejoin="round"/>
</svg>
