<svg width="30" height="28" viewBox="0 0 30 28" fill="none" xmlns="http://www.w3.org/2000/svg">
<path d="M6 18C8.76 18 11 15.76 11 13C11 10.24 8.76 8 6 8C3.24 8 1 10.24 1 13C1 15.76 3.24 18 6 18Z" stroke="black" stroke-width="1.5" stroke-linecap="round" stroke-linejoin="round"/>
<path d="M24 11C26.76 11 29 8.76 29 6C29 3.24 26.76 1 24 1C21.24 1 19 3.24 19 6C19 8.76 21.24 11 24 11Z" stroke="black" stroke-width="1.5" stroke-linecap="round" stroke-linejoin="round"/>
<path d="M24 27C26.76 27 29 24.76 29 22C29 19.24 26.76 17 24 17C21.24 17 19 19.24 19 22C19 24.76 21.24 27 24 27Z" stroke="black" stroke-width="1.5" stroke-linecap="round" stroke-linejoin="round"/>
<path d="M10.6543 11.1865L19.3343 7.81348" stroke="black" stroke-width="1.5" stroke-linecap="round" stroke-linejoin="round"/>
<path d="M10.4668 15.24L19.5202 19.7735" stroke="black" stroke-width="1.5" stroke-linecap="round" stroke-linejoin="round"/>
</svg>
